<svg width="217" height="186" viewBox="0 0 217 186" fill="none" xmlns="http://www.w3.org/2000/svg">
<g filter="url(#filter0_d_104_102)">
<g opacity="0.5">
<path d="M30.1288 22.1976C30.0094 23.5134 29.9198 24.7853 29.8601 26.0134C29.8303 27.2415 29.8154 28.1918 29.8154 28.8643C29.8154 29.5075 29.8303 30.1216 29.8601 30.7064C29.89 31.2912 29.9198 31.7882 29.9497 32.1976H28.9199C28.5319 29.9169 27.9947 28.1333 27.3082 26.8467C26.6217 25.5309 25.771 24.5953 24.7562 24.0397C23.7712 23.4842 22.5922 23.2064 21.2192 23.2064H19.7418C18.8762 23.2064 18.2195 23.2795 17.7718 23.4257C17.3241 23.5719 17.0256 23.8643 16.8764 24.3029C16.7272 24.7415 16.6525 25.414 16.6525 26.3204V48.338C16.6525 49.4783 16.7719 50.3263 17.0107 50.8818C17.2495 51.4374 17.7121 51.8029 18.3986 51.9783C19.0851 52.1537 20.0999 52.2561 21.4431 52.2853V53.2502C20.5178 53.221 19.3239 53.1918 17.8614 53.1625C16.3988 53.1333 14.8617 53.1187 13.2499 53.1187C11.9665 53.1187 10.7129 53.1333 9.4891 53.1625C8.26534 53.1918 7.16098 53.221 6.176 53.2502V52.373C7.13113 52.3146 7.84747 52.1976 8.32504 52.0222C8.8026 51.8467 9.116 51.4958 9.26524 50.9695C9.44432 50.4432 9.53387 49.6537 9.53387 48.6011V26.8467C9.53387 25.7649 9.44432 24.9754 9.26524 24.4783C9.116 23.952 8.78767 23.6011 8.28026 23.4257C7.8027 23.221 7.10128 23.104 6.176 23.0748V22.1976C7.39976 22.2269 8.69813 22.2561 10.0711 22.2853C11.4441 22.2853 12.8022 22.3 14.1453 22.3292C15.4885 22.3292 16.7421 22.3292 17.9061 22.3292C19.0702 22.3292 20.0253 22.3292 20.7715 22.3292C22.1445 22.3292 23.6966 22.3292 25.4278 22.3292C27.1888 22.3 28.7558 22.2561 30.1288 22.1976ZM23.4578 37.373C23.4578 37.373 23.4578 37.5192 23.4578 37.8116C23.4578 38.104 23.4578 38.2502 23.4578 38.2502H15.3094C15.3094 38.2502 15.3094 38.104 15.3094 37.8116C15.3094 37.5192 15.3094 37.373 15.3094 37.373H23.4578ZM24.5771 31.5836C24.4577 33.2502 24.398 34.5222 24.398 35.3994C24.4279 36.2766 24.4428 37.0807 24.4428 37.8116C24.4428 38.5426 24.4577 39.3467 24.4876 40.2239C24.5174 41.1011 24.592 42.373 24.7114 44.0397H23.6817C23.5026 43.0163 23.219 42.066 22.831 41.1888C22.443 40.3116 21.8759 39.6099 21.1297 39.0836C20.3835 38.528 19.4135 38.2502 18.2195 38.2502V37.373C19.115 37.373 19.8612 37.1976 20.4581 36.8467C21.0849 36.4666 21.6073 35.9842 22.0251 35.3994C22.443 34.7853 22.7713 34.1421 23.0101 33.4695C23.2489 32.797 23.428 32.1684 23.5474 31.5836H24.5771Z" fill="black"/>
<path d="M47.6253 29.9608C48.5805 29.9608 49.3565 30.1654 49.9535 30.5748C50.5504 30.9549 50.9832 31.452 51.2518 32.066C51.5503 32.6801 51.6996 33.3233 51.6996 33.9959C51.6996 35.0777 51.3712 35.9695 50.7146 36.6713C50.0878 37.3438 49.252 37.6801 48.2074 37.6801C47.1627 37.6801 46.3419 37.4315 45.7449 36.9345C45.1778 36.4081 44.8943 35.721 44.8943 34.873C44.8943 34.0543 45.0734 33.3818 45.4315 32.8555C45.8196 32.2999 46.2971 31.8321 46.8642 31.452C46.4464 31.335 46.0285 31.3497 45.6106 31.4959C45.0435 31.5836 44.5063 31.8175 43.9988 32.1976C43.4914 32.5485 43.0586 33.0017 42.7005 33.5573C42.3423 34.0836 42.0588 34.6684 41.8498 35.3116C41.6409 35.9257 41.5364 36.5251 41.5364 37.1099V48.7327C41.5364 50.1362 41.8797 51.0865 42.5662 51.5836C43.2825 52.0807 44.3421 52.3292 45.7449 52.3292V53.2502C45.0584 53.221 44.0585 53.1918 42.7452 53.1625C41.4319 53.104 40.059 53.0748 38.6263 53.0748C37.4324 53.0748 36.2235 53.104 34.9998 53.1625C33.776 53.1918 32.8507 53.221 32.2239 53.2502V52.3292C33.2686 52.3292 33.9999 52.1099 34.4177 51.6713C34.8655 51.2327 35.0893 50.3994 35.0893 49.1713V35.3555C35.0893 34.0397 34.8804 33.0748 34.4625 32.4608C34.0745 31.8175 33.3283 31.4959 32.2239 31.4959V30.5748C33.1791 30.6625 34.1043 30.7064 34.9998 30.7064C36.2534 30.7064 37.4174 30.6625 38.492 30.5748C39.5963 30.4578 40.6111 30.297 41.5364 30.0923V34.1713C41.8946 33.3818 42.3722 32.6654 42.9691 32.0222C43.5661 31.3789 44.2526 30.8818 45.0286 30.5309C45.8046 30.1508 46.6702 29.9608 47.6253 29.9608Z" fill="black"/>
<path d="M75.4194 30.0923V48.4695C75.4194 49.7853 75.6283 50.7649 76.0462 51.4081C76.464 52.0222 77.2102 52.3292 78.2847 52.3292V53.2502C77.3595 53.1625 76.4342 53.1187 75.5089 53.1187C74.2553 53.1187 73.0912 53.1625 72.0167 53.2502C70.9422 53.338 69.9274 53.4988 68.9723 53.7327V49.7853C68.2559 51.2473 67.256 52.2999 65.9726 52.9432C64.719 53.5573 63.3161 53.8643 61.764 53.8643C60.5104 53.8643 59.4956 53.7035 58.7196 53.3818C57.9435 53.0602 57.3317 52.6508 56.884 52.1537C56.3765 51.5982 56.0184 50.8672 55.8094 49.9608C55.6005 49.0543 55.496 47.8847 55.496 46.452V35.3555C55.496 34.0397 55.2871 33.0748 54.8692 32.4608C54.4812 31.8175 53.735 31.4959 52.6307 31.4959V30.5748C53.5858 30.6625 54.5111 30.7064 55.4065 30.7064C56.6601 30.7064 57.8242 30.6625 58.8987 30.5748C60.003 30.4578 61.0179 30.297 61.9431 30.0923V48.2502C61.9431 48.9812 62.0028 49.6245 62.1222 50.1801C62.2715 50.7356 62.5401 51.1742 62.9281 51.4958C63.3161 51.7882 63.8832 51.9345 64.6294 51.9345C65.4353 51.9345 66.1517 51.7151 66.7785 51.2766C67.4351 50.838 67.9574 50.2385 68.3455 49.4783C68.7633 48.6888 68.9723 47.8116 68.9723 46.8467V35.3555C68.9723 34.0397 68.7633 33.0748 68.3455 32.4608C67.9574 31.8175 67.2113 31.4959 66.1069 31.4959V30.5748C67.062 30.6625 67.9873 30.7064 68.8827 30.7064C70.1363 30.7064 71.3004 30.6625 72.3749 30.5748C73.4793 30.4578 74.4941 30.297 75.4194 30.0923Z" fill="black"/>
<path d="M86.0949 19.259C87.3485 19.259 88.3335 19.566 89.0498 20.1801C89.796 20.7649 90.1691 21.5836 90.1691 22.6362C90.1691 23.6888 89.796 24.5222 89.0498 25.1362C88.3335 25.721 87.3485 26.0134 86.0949 26.0134C84.8413 26.0134 83.8414 25.721 83.0952 25.1362C82.3789 24.5222 82.0207 23.6888 82.0207 22.6362C82.0207 21.5836 82.3789 20.7649 83.0952 20.1801C83.8414 19.566 84.8413 19.259 86.0949 19.259ZM89.5871 30.0923V49.1713C89.5871 50.3994 89.796 51.2327 90.2139 51.6713C90.6616 52.1099 91.4078 52.3292 92.4525 52.3292V53.2502C91.9152 53.221 91.0795 53.1918 89.9453 53.1625C88.8111 53.104 87.6619 53.0748 86.4979 53.0748C85.3338 53.0748 84.1548 53.104 82.9609 53.1625C81.767 53.1918 80.8716 53.221 80.2746 53.2502V52.3292C81.3193 52.3292 82.0506 52.1099 82.4684 51.6713C82.9162 51.2327 83.14 50.3994 83.14 49.1713V35.3555C83.14 34.0397 82.9311 33.0748 82.5132 32.4608C82.1252 31.8175 81.379 31.4959 80.2746 31.4959V30.5748C81.2298 30.6625 82.155 30.7064 83.0505 30.7064C84.3041 30.7064 85.4681 30.6625 86.5426 30.5748C87.647 30.4578 88.6618 30.297 89.5871 30.0923Z" fill="black"/>
<path d="M103.486 23.3818V30.5748L127.802 31.452H103.486V49.1713C103.486 50.0485 103.65 50.6771 103.978 51.0573C104.306 51.4081 104.799 51.5836 105.455 51.5836C105.993 51.5836 106.53 51.3935 107.067 51.0134C107.604 50.604 122.415 24.3906 122.832 23.4257L109.261 49.3467C122.832 23.4257 108.052 51.7444 107.067 52.5923C106.112 53.4403 104.799 53.8643 103.127 53.8643C102.142 53.8643 101.277 53.7327 100.531 53.4695C99.7844 53.2356 99.1576 52.8701 98.6502 52.373C97.9935 51.7298 97.5607 50.9403 97.3518 50.0046C97.1429 49.0397 97.0384 47.797 97.0384 46.2765V31.452H93.2776V30.5748H97.0384V24.7853C98.292 24.7853 99.4411 24.683 100.486 24.4783C101.56 24.2444 102.56 23.8789 103.486 23.3818Z" fill="black"/>
<path d="M139.711 53.2502V52.373C140.666 52.3146 141.383 52.1976 141.86 52.0222C142.338 51.8467 142.651 51.4958 142.801 50.9695C142.98 50.4432 143.069 49.6537 143.069 48.6011V26.8467C143.069 25.7649 142.98 24.9754 142.801 24.4783C142.651 23.952 142.323 23.6011 141.816 23.4257C141.338 23.221 140.637 23.104 139.711 23.0748V22.1976C140.517 22.2269 141.562 22.2561 142.845 22.2853C144.159 22.3146 145.457 22.3292 146.74 22.3292C148.113 22.3292 149.397 22.3146 150.591 22.2853C151.815 22.2561 152.799 22.2269 153.546 22.1976V23.0748C152.591 23.104 151.859 23.221 151.352 23.4257C150.874 23.6011 150.561 23.952 150.412 24.4783C150.262 24.9754 150.188 25.7649 150.188 26.8467V48.6011C150.188 49.6537 150.262 50.4432 150.412 50.9695C150.591 51.4958 150.919 51.8467 151.397 52.0222C151.874 52.1976 152.591 52.3146 153.546 52.373V53.2502C152.799 53.1918 151.815 53.1625 150.591 53.1625C149.397 53.1333 148.113 53.1187 146.74 53.1187C145.457 53.1187 144.159 53.1333 142.845 53.1625C141.562 53.1625 140.517 53.1918 139.711 53.2502ZM120.728 53.2502V52.373C121.683 52.3146 122.4 52.1976 122.877 52.0222C123.355 51.8467 123.668 51.4958 123.817 50.9695C123.996 50.4432 124.086 49.6537 124.086 48.6011V26.8467C124.086 25.7649 123.996 24.9754 123.817 24.4783C123.668 23.952 123.34 23.6011 122.832 23.4257C122.355 23.221 121.653 23.104 120.728 23.0748V22.1976C121.504 22.2269 122.504 22.2561 123.728 22.2853C124.981 22.3146 126.34 22.3292 127.802 22.3292C129.056 22.3292 130.294 22.3146 131.518 22.2853C132.742 22.2561 133.757 22.2269 134.563 22.1976V23.0748C133.607 23.104 132.876 23.221 132.369 23.4257C131.891 23.6011 131.578 23.952 131.429 24.4783C131.279 24.9754 131.205 25.7649 131.205 26.8467V48.6011C131.205 49.6537 131.279 50.4432 131.429 50.9695C131.608 51.4958 131.936 51.8467 132.414 52.0222C132.891 52.1976 133.607 52.3146 134.563 52.373V53.2502C133.757 53.1918 132.742 53.1625 131.518 53.1625C130.294 53.1333 129.056 53.1187 127.802 53.1187C126.34 53.1187 124.981 53.1333 123.728 53.1625C122.504 53.1625 121.504 53.1918 120.728 53.2502ZM128.295 38.0748V37.1976H145.979V38.0748H128.295Z" fill="black"/>
<path d="M177.86 30.0923V48.4695C177.86 49.7853 178.069 50.7649 178.487 51.4081C178.905 52.0222 179.651 52.3292 180.726 52.3292V53.2502C179.801 53.1625 178.875 53.1187 177.95 53.1187C176.696 53.1187 175.532 53.1625 174.458 53.2502C173.383 53.338 172.368 53.4988 171.413 53.7327V49.7853C170.697 51.2473 169.697 52.2999 168.414 52.9432C167.16 53.5573 165.757 53.8643 164.205 53.8643C162.952 53.8643 161.937 53.7035 161.161 53.3818C160.385 53.0602 159.773 52.6508 159.325 52.1537C158.818 51.5982 158.459 50.8672 158.251 49.9608C158.042 49.0543 157.937 47.8847 157.937 46.452V35.3555C157.937 34.0397 157.728 33.0748 157.31 32.4608C156.922 31.8175 156.176 31.4959 155.072 31.4959L150.188 30.7064C151.143 30.7941 156.952 30.7064 157.848 30.7064C159.101 30.7064 160.265 30.6625 161.34 30.5748C162.444 30.4578 163.459 30.297 164.384 30.0923V48.2502C164.384 48.9812 164.444 49.6245 164.563 50.1801C164.713 50.7356 164.981 51.1742 165.369 51.4958C165.757 51.7882 166.324 51.9345 167.071 51.9345C167.876 51.9345 168.593 51.7151 169.22 51.2766C169.876 50.838 170.399 50.2385 170.787 49.4783C171.204 48.6888 171.413 47.8116 171.413 46.8467V35.3555C171.413 34.0397 171.204 33.0748 170.787 32.4608C170.399 31.8175 169.652 31.4959 168.548 31.4959V30.5748C169.503 30.6625 170.428 30.7064 171.324 30.7064C172.577 30.7064 173.741 30.6625 174.816 30.5748C175.92 30.4578 176.935 30.297 177.86 30.0923Z" fill="black"/>
<path d="M198.072 29.9608C200.4 29.9608 202.326 30.8964 203.848 32.7678C205.4 34.6099 206.176 37.4608 206.176 41.3204C206.176 44.3613 205.698 46.8029 204.743 48.645C203.818 50.4871 202.579 51.8175 201.027 52.6362C199.475 53.4549 197.774 53.8643 195.923 53.8643C194.7 53.8643 193.565 53.6596 192.521 53.2502C191.476 52.8409 190.581 52.1684 189.834 51.2327L190.461 51.0134C190.998 51.6567 191.625 52.1391 192.342 52.4608C193.088 52.7824 193.819 52.9432 194.535 52.9432C196.177 52.9432 197.401 52.0368 198.207 50.2239C199.013 48.4111 199.416 45.6479 199.416 41.9344C199.416 39.4198 199.251 37.4315 198.923 35.9695C198.625 34.4783 198.177 33.4257 197.58 32.8116C196.983 32.1684 196.267 31.8467 195.431 31.8467C194.386 31.8467 193.431 32.2707 192.565 33.1187C191.7 33.9374 191.207 35.0923 191.088 36.5836L190.864 35.0485C191.401 33.3818 192.312 32.1245 193.595 31.2766C194.879 30.3994 196.371 29.9608 198.072 29.9608ZM191.222 18.952V52.373C190.476 52.2561 189.715 52.2561 188.939 52.373C188.163 52.49 187.447 52.6947 186.79 52.9871C186.133 53.2502 185.581 53.5719 185.133 53.952L184.462 53.5573C184.581 53.1479 184.656 52.7385 184.686 52.3292C184.745 51.9198 184.775 51.5105 184.775 51.1011V24.2152C184.775 22.8994 184.566 21.9345 184.148 21.3204C183.76 20.6771 183.014 20.3555 181.91 20.3555L164.414 19.259C165.369 19.3467 183.79 19.566 184.686 19.566C185.909 19.566 187.073 19.5222 188.178 19.4345C189.282 19.3175 190.297 19.1567 191.222 18.952Z" fill="black"/>
</g>
</g>
<path d="M133.855 119.611C127.939 142.161 132.753 168.48 108.55 162.948C84.3461 157.415 54.6642 109.832 60.5802 87.282C66.4962 64.7324 105.77 75.756 129.973 81.2885C154.177 86.8209 139.771 97.0618 133.855 119.611Z" fill="#BAC5D1"/>
<path d="M77.3509 134.152C84.8762 114.52 83.7755 90.7868 103.567 97.3965C123.358 104.006 143.041 148.381 135.516 168.013C127.991 187.645 96.1066 175.101 76.3152 168.491C56.5238 161.881 69.8256 153.784 77.3509 134.152Z" fill="#36C2F5"/>
<defs>
<filter id="filter0_d_104_102" x="-2" y="0" width="218.176" height="76.6218" filterUnits="userSpaceOnUse" color-interpolation-filters="sRGB">
<feFlood flood-opacity="0" result="BackgroundImageFix"/>
<feColorMatrix in="SourceAlpha" type="matrix" values="0 0 0 0 0 0 0 0 0 0 0 0 0 0 0 0 0 0 127 0" result="hardAlpha"/>
<feOffset dx="2" dy="8"/>
<feGaussianBlur stdDeviation="4"/>
<feComposite in2="hardAlpha" operator="out"/>
<feColorMatrix type="matrix" values="0 0 0 0 0.309804 0 0 0 0 0.627451 0 0 0 0 0.968627 0 0 0 0.3 0"/>
<feBlend mode="normal" in2="BackgroundImageFix" result="effect1_dropShadow_104_102"/>
<feBlend mode="normal" in="SourceGraphic" in2="effect1_dropShadow_104_102" result="shape"/>
</filter>
</defs>
</svg>
